<?xml version="1.0" encoding="iso-8859-1"?>
<!-- Uploaded to: SVG Repo, www.svgrepo.com, Generator: SVG Repo Mixer Tools -->
<svg fill="#000000" height="800px" width="800px" version="1.1" id="Layer_1" xmlns="http://www.w3.org/2000/svg" xmlns:xlink="http://www.w3.org/1999/xlink" 
	 viewBox="0 0 512.001 512.001" xml:space="preserve">
<g>
	<g>
		<path d="M468.01,407.834c-2.184-3.954-7.201-5.367-11.161-3.186c-2.333,1.286-4.744,2.324-7.2,3.135
			c2.878-17.435,5.915-37.049,8.681-57.318c4.468-32.757-5.454-65.847-27.222-90.787c-21.676-24.833-52.955-39.076-85.817-39.076
			h-5.379c-2.981-14.643-13.804-26.468-27.876-30.884V87.104h5.41c4.522,0,8.185-3.665,8.185-8.185c0-4.52-3.664-8.185-8.185-8.185
			h-8.417c-15.184-30.382-42.246-50.572-73.325-54.381c-0.094-0.012-0.189-0.009-0.284-0.017c4.187-0.361,7.473-3.869,7.473-8.149
			c0-4.52-3.665-8.185-8.185-8.185c-4.521,0-8.185,3.665-8.185,8.185c0,4.28,3.286,7.788,7.473,8.149
			c-0.094,0.009-0.189,0.005-0.284,0.017c-31.08,3.809-58.141,23.998-73.325,54.381h-5.109c-4.522,0-8.185,3.665-8.185,8.185
			c0,4.521,3.664,8.185,8.185,8.185h2.102v101.99c-15.413,3.887-27.367,16.541-30.246,32.327
			c-47.428,6.183-84.174,46.845-84.174,95.931v186.465c0,4.521,3.664,8.185,8.185,8.185h60.026c0.414,0,0.816-0.04,1.214-0.099
			h9.709c4.522,0,8.185-3.665,8.185-8.185v-1.039c0-4.52-3.664-8.185-8.185-8.185c-1.45,0-2.813,0.378-3.994,1.039H59.331V317.35
			c0-21.783,8.723-41.556,22.842-56.048l104.365,104.2c7.265,7.265,16.813,10.895,26.372,10.895c9.601,0,19.215-3.663,26.537-10.985
			c3.197-3.197,3.197-8.38,0-11.575c-3.198-3.197-8.38-3.197-11.576,0c-8.228,8.229-21.577,8.27-29.762,0.085L94.766,250.743
			c6.086-4.12,12.772-7.409,19.885-9.749l83.803,83.674c3.861,3.862,8.979,6.036,14.409,6.123c0.112,0.001,0.224,0.002,0.336,0.002
			c5.427,0,10.506-2.096,14.334-5.924c3.197-3.197,3.197-8.38,0-11.575c-3.198-3.197-8.38-3.197-11.576,0
			c-0.954,0.955-2.085,1.154-2.833,1.127c-1.157-0.019-2.254-0.49-3.098-1.334l-76.008-75.89c1.882-0.132,3.774-0.224,5.689-0.224
			h205.583c28.133,0,54.917,12.199,73.483,33.47c18.659,21.378,27.165,49.738,23.336,77.81c-2.995,21.951-6.31,43.125-9.391,61.557
			c-12.682-1.003-24.775-7.526-32.341-18.604c-7.496-12.612-21.252-21.085-36.957-21.085h-17.605c-4.522,0-8.185,3.665-8.185,8.185
			v86.855c0,4.521,3.664,8.185,8.185,8.185c4.522,0,8.185-3.665,8.185-8.185v-78.67h9.42c9.422,0,17.708,4.929,22.434,12.338
			c0.147,0.296,0.308,0.587,0.494,0.87c0.064,0.097,0.135,0.186,0.2,0.283c2.202,3.871,3.467,8.342,3.467,13.105v38.605
			c0,4.521,3.664,8.185,8.185,8.185c4.522,0,8.185-3.665,8.185-8.185v-33.3c7.26,4.134,15.307,6.709,23.574,7.576
			c-4.278,24.565-7.663,41.766-8.342,45.185c-0.824,3.797-3.531,12.47-11.048,12.47h-21.124c-1.466,0-2.704-1.239-2.704-2.704
			v-4.715c0-4.52-3.664-8.185-8.185-8.185c-4.522,0-8.185,3.665-8.185,8.185v4.715c0,10.518,8.557,19.075,19.075,19.075h21.124
			c13.322,0,23.694-9.756,27.066-25.461c0.009-0.04,0.017-0.082,0.025-0.122c0.682-3.433,4.396-22.29,9.014-49.028
			c6.177-1.102,12.256-3.192,17.99-6.353c0.033-0.019,0.155-0.085,0.188-0.104C468.806,416.74,470.195,411.789,468.01,407.834z
			 M234.708,32.73c22.623,3.097,42.68,16.966,55.623,38.003H179.085C192.028,49.697,212.085,35.828,234.708,32.73z M144.232,220.593
			c3.378-9.529,12.481-16.371,23.154-16.371h97.132c4.522,0,8.185-3.665,8.185-8.185c0-4.52-3.664-8.185-8.185-8.185h-90.766V87.104
			h121.914v101.882c-2.417,1.423-4.044,4.045-4.044,7.051c0,4.521,3.664,8.185,8.185,8.185c10.671,0,19.775,6.843,23.154,16.371
			H144.232z"/>
	</g>
</g>
<g>
	<g>
		<path d="M352.724,338.948c-0.979-4.412-5.352-7.199-9.766-6.214l-54.645,12.14c-0.683-0.492-1.969-2.475-1.969-5.63v-71.528
			c0.001-3.176,1.303-5.164,1.982-5.638l54.975,9.773c4.447,0.793,8.7-2.176,9.491-6.626c0.792-4.452-2.175-8.7-6.626-9.492
			l-55.228-9.819c-4.684-0.833-9.369,0.474-13.194,3.679c-4.865,4.076-7.769,10.852-7.769,18.123v71.528
			c0,7.45,3.018,14.317,8.072,18.371c3.02,2.422,6.522,3.68,10.12,3.68c1.137,0,2.284-0.125,3.429-0.38l54.914-12.203
			C350.923,347.734,353.705,343.361,352.724,338.948z"/>
	</g>
</g>
<g>
	<g>
		<circle cx="403.123" cy="315.451" r="8.185"/>
	</g>
</g>
<g>
	<g>
		<path d="M357.831,494.16c-1.676,0-3.236,0.504-4.534,1.369h-53.855v-30.235c0-21.843-17.829-39.613-39.744-39.613h-117.03
			c-21.877,0-39.675,17.77-39.675,39.613c0,4.52,3.664,8.185,8.185,8.185c4.522,0,8.185-3.665,8.185-8.185
			c0-12.816,10.454-23.242,23.304-23.242h117.029c12.888,0,23.373,10.426,23.373,23.242v38.421c0,4.52,3.664,8.185,8.185,8.185
			h66.574c4.522,0,8.185-3.665,8.185-8.185v-1.369C366.016,497.825,362.351,494.16,357.831,494.16z"/>
	</g>
</g>
</svg>